<svg xmlns="http://www.w3.org/2000/svg" xmlns:xlink="http://www.w3.org/1999/xlink" width="2380" zoomAndPan="magnify" viewBox="0 0 1784.88 1784.99993" height="2380" preserveAspectRatio="xMidYMid meet" version="1.0"><defs><clipPath id="a09b9ad2c0"><path d="M 0.488281 0.546875 L 1428.453125 0.546875 L 1428.453125 1428.511719 L 0.488281 1428.511719 Z M 0.488281 0.546875 " clip-rule="nonzero"/></clipPath><clipPath id="1c1232874e"><rect x="0" width="1429" y="0" height="1429"/></clipPath></defs><g transform="matrix(1, 0, 0, 1, 178, 178)"><g clip-path="url(#1c1232874e)"><g clip-path="url(#a09b9ad2c0)"><path fill="#ffffff" d="M 1428.382812 714.496094 C 1428.382812 726.179688 1428.097656 737.855469 1427.523438 749.527344 C 1426.949219 761.195312 1426.089844 772.847656 1424.945312 784.472656 C 1423.800781 796.101562 1422.371094 807.695312 1420.65625 819.253906 C 1418.941406 830.8125 1416.945312 842.320312 1414.664062 853.78125 C 1412.382812 865.238281 1409.824219 876.636719 1406.984375 887.96875 C 1404.148438 899.304688 1401.03125 910.5625 1397.640625 921.742188 C 1394.25 932.925781 1390.585938 944.015625 1386.648438 955.015625 C 1382.710938 966.019531 1378.507812 976.914062 1374.035156 987.710938 C 1369.566406 998.503906 1364.832031 1009.183594 1359.835938 1019.746094 C 1354.839844 1030.308594 1349.589844 1040.742188 1344.082031 1051.046875 C 1338.574219 1061.351562 1332.816406 1071.515625 1326.808594 1081.539062 C 1320.800781 1091.558594 1314.550781 1101.425781 1308.058594 1111.144531 C 1301.570312 1120.859375 1294.84375 1130.40625 1287.882812 1139.792969 C 1280.921875 1149.179688 1273.734375 1158.386719 1266.324219 1167.417969 C 1258.910156 1176.449219 1251.28125 1185.296875 1243.433594 1193.953125 C 1235.589844 1202.609375 1227.535156 1211.070312 1219.273438 1219.332031 C 1211.011719 1227.59375 1202.550781 1235.648438 1193.894531 1243.496094 C 1185.234375 1251.339844 1176.390625 1258.972656 1167.359375 1266.382812 C 1158.328125 1273.796875 1149.117188 1280.984375 1139.734375 1287.941406 C 1130.347656 1294.902344 1120.796875 1301.628906 1111.082031 1308.121094 C 1101.367188 1314.613281 1091.5 1320.859375 1081.476562 1326.867188 C 1071.457031 1332.875 1061.292969 1338.632812 1050.988281 1344.140625 C 1040.683594 1349.648438 1030.25 1354.898438 1019.6875 1359.894531 C 1009.125 1364.890625 998.445312 1369.625 987.652344 1374.097656 C 976.855469 1378.566406 965.957031 1382.769531 954.957031 1386.707031 C 943.957031 1390.644531 932.863281 1394.308594 921.683594 1397.699219 C 910.503906 1401.089844 899.246094 1404.207031 887.910156 1407.046875 C 876.574219 1409.886719 865.179688 1412.445312 853.71875 1414.722656 C 842.257812 1417.003906 830.75 1419 819.191406 1420.714844 C 807.636719 1422.429688 796.042969 1423.859375 784.414062 1425.003906 C 772.785156 1426.148438 761.136719 1427.007812 749.46875 1427.582031 C 737.796875 1428.15625 726.121094 1428.441406 714.433594 1428.441406 C 702.75 1428.441406 691.074219 1428.15625 679.402344 1427.582031 C 667.734375 1427.007812 656.085938 1426.148438 644.457031 1425.003906 C 632.828125 1423.859375 621.234375 1422.429688 609.675781 1420.714844 C 598.121094 1419 586.609375 1417.003906 575.152344 1414.722656 C 563.691406 1412.445312 552.292969 1409.886719 540.960938 1407.046875 C 529.625 1404.207031 518.367188 1401.089844 507.1875 1397.699219 C 496.007812 1394.308594 484.914062 1390.644531 473.914062 1386.707031 C 462.914062 1382.769531 452.015625 1378.566406 441.21875 1374.097656 C 430.425781 1369.625 419.746094 1364.890625 409.183594 1359.894531 C 398.621094 1354.898438 388.1875 1349.648438 377.882812 1344.140625 C 367.578125 1338.632812 357.414062 1332.875 347.394531 1326.867188 C 337.371094 1320.859375 327.503906 1314.613281 317.789062 1308.121094 C 308.070312 1301.628906 298.523438 1294.902344 289.136719 1287.941406 C 279.753906 1280.984375 270.542969 1273.796875 261.511719 1266.382812 C 252.480469 1258.972656 243.636719 1251.339844 234.976562 1243.496094 C 226.320312 1235.648438 217.859375 1227.59375 209.597656 1219.332031 C 201.335938 1211.070312 193.28125 1202.609375 185.433594 1193.953125 C 177.589844 1185.296875 169.957031 1176.449219 162.546875 1167.417969 C 155.132812 1158.386719 147.949219 1149.179688 140.988281 1139.792969 C 134.027344 1130.40625 127.300781 1120.859375 120.808594 1111.144531 C 114.316406 1101.425781 108.070312 1091.558594 102.0625 1081.539062 C 96.054688 1071.515625 90.296875 1061.351562 84.789062 1051.046875 C 79.28125 1040.742188 74.03125 1030.308594 69.035156 1019.746094 C 64.039062 1009.183594 59.304688 998.503906 54.832031 987.710938 C 50.363281 976.914062 46.160156 966.019531 42.222656 955.015625 C 38.285156 944.015625 34.621094 932.925781 31.230469 921.742188 C 27.839844 910.5625 24.722656 899.304688 21.882812 887.96875 C 19.046875 876.636719 16.484375 865.238281 14.207031 853.78125 C 11.925781 842.320312 9.929688 830.8125 8.214844 819.253906 C 6.5 807.695312 5.070312 796.101562 3.925781 784.472656 C 2.78125 772.847656 1.921875 761.195312 1.347656 749.527344 C 0.773438 737.855469 0.488281 726.179688 0.488281 714.496094 C 0.488281 702.8125 0.773438 691.132812 1.347656 679.464844 C 1.921875 667.792969 2.78125 656.144531 3.925781 644.515625 C 5.070312 632.886719 6.5 621.296875 8.214844 609.738281 C 9.929688 598.179688 11.925781 586.671875 14.207031 575.210938 C 16.484375 563.75 19.046875 552.355469 21.882812 541.019531 C 24.722656 529.6875 27.839844 518.429688 31.230469 507.246094 C 34.621094 496.066406 38.285156 484.976562 42.222656 473.972656 C 46.160156 462.972656 50.363281 452.074219 54.832031 441.28125 C 59.304688 430.484375 64.039062 419.804688 69.035156 409.242188 C 74.03125 398.679688 79.28125 388.246094 84.789062 377.941406 C 90.296875 367.636719 96.054688 357.476562 102.0625 347.453125 C 108.070312 337.429688 114.316406 327.5625 120.808594 317.847656 C 127.300781 308.132812 134.027344 298.582031 140.988281 289.195312 C 147.949219 279.8125 155.132812 270.605469 162.546875 261.570312 C 169.957031 252.539062 177.589844 243.695312 185.433594 235.039062 C 193.28125 226.378906 201.335938 217.921875 209.597656 209.660156 C 217.859375 201.394531 226.320312 193.34375 234.976562 185.496094 C 243.636719 177.648438 252.480469 170.019531 261.511719 162.605469 C 270.542969 155.195312 279.753906 148.007812 289.136719 141.046875 C 298.523438 134.085938 308.070312 127.359375 317.789062 120.871094 C 327.503906 114.378906 337.371094 108.128906 347.394531 102.121094 C 357.414062 96.117188 367.578125 90.359375 377.882812 84.851562 C 388.1875 79.34375 398.621094 74.089844 409.183594 69.09375 C 419.746094 64.097656 430.425781 59.367188 441.21875 54.894531 C 452.015625 50.421875 462.914062 46.21875 473.914062 42.28125 C 484.914062 38.347656 496.007812 34.683594 507.1875 31.289062 C 518.367188 27.898438 529.625 24.78125 540.960938 21.945312 C 552.292969 19.105469 563.691406 16.546875 575.152344 14.265625 C 586.609375 11.988281 598.121094 9.988281 609.675781 8.273438 C 621.234375 6.5625 632.828125 5.132812 644.457031 3.984375 C 656.085938 2.839844 667.734375 1.980469 679.402344 1.40625 C 691.074219 0.835938 702.75 0.546875 714.433594 0.546875 C 726.121094 0.546875 737.796875 0.835938 749.46875 1.40625 C 761.136719 1.980469 772.785156 2.839844 784.414062 3.984375 C 796.042969 5.132812 807.636719 6.5625 819.191406 8.273438 C 830.75 9.988281 842.257812 11.988281 853.71875 14.265625 C 865.179688 16.546875 876.574219 19.105469 887.910156 21.945312 C 899.246094 24.78125 910.503906 27.898438 921.683594 31.289062 C 932.863281 34.683594 943.957031 38.347656 954.957031 42.28125 C 965.957031 46.21875 976.855469 50.421875 987.652344 54.894531 C 998.445312 59.367188 1009.125 64.097656 1019.6875 69.09375 C 1030.25 74.089844 1040.683594 79.34375 1050.988281 84.851562 C 1061.292969 90.359375 1071.457031 96.117188 1081.476562 102.121094 C 1091.5 108.128906 1101.367188 114.378906 1111.082031 120.871094 C 1120.796875 127.359375 1130.347656 134.085938 1139.734375 141.046875 C 1149.117188 148.007812 1158.328125 155.195312 1167.359375 162.605469 C 1176.390625 170.019531 1185.234375 177.648438 1193.894531 185.496094 C 1202.550781 193.34375 1211.011719 201.394531 1219.273438 209.660156 C 1227.535156 217.921875 1235.589844 226.378906 1243.433594 235.039062 C 1251.28125 243.695312 1258.910156 252.539062 1266.324219 261.570312 C 1273.734375 270.605469 1280.921875 279.8125 1287.882812 289.195312 C 1294.84375 298.582031 1301.570312 308.132812 1308.058594 317.847656 C 1314.550781 327.5625 1320.800781 337.429688 1326.808594 347.453125 C 1332.816406 357.476562 1338.574219 367.636719 1344.082031 377.941406 C 1349.589844 388.246094 1354.839844 398.679688 1359.835938 409.242188 C 1364.832031 419.804688 1369.566406 430.484375 1374.035156 441.28125 C 1378.507812 452.074219 1382.710938 462.972656 1386.648438 473.972656 C 1390.585938 484.976562 1394.25 496.066406 1397.640625 507.246094 C 1401.03125 518.429688 1404.148438 529.6875 1406.984375 541.019531 C 1409.824219 552.355469 1412.382812 563.75 1414.664062 575.210938 C 1416.945312 586.671875 1418.941406 598.179688 1420.65625 609.738281 C 1422.371094 621.296875 1423.800781 632.886719 1424.945312 644.515625 C 1426.089844 656.144531 1426.949219 667.792969 1427.523438 679.464844 C 1428.097656 691.132812 1428.382812 702.8125 1428.382812 714.496094 Z M 1428.382812 714.496094 " fill-opacity="1" fill-rule="nonzero"/></g><path fill="#000000" d="M 698.074219 911.425781 L 567.777344 1041.722656 C 542.492188 1067.007812 509.175781 1079.796875 475.859375 1079.796875 C 444.027344 1079.796875 412.199219 1067.898438 387.804688 1044.398438 C 363.113281 1020.601562 349.429688 988.472656 349.132812 953.964844 C 348.835938 919.457031 362.222656 887.328125 386.316406 862.9375 L 518.101562 731.152344 C 516.910156 721.632812 516.015625 711.816406 516.015625 702 C 516.015625 678.203125 519.882812 654.40625 527.617188 632.6875 L 341.695312 818.613281 C 305.996094 854.308594 286.066406 902.203125 286.066406 953.074219 C 286.066406 1003.347656 305.402344 1050.941406 340.804688 1086.640625 C 376.203125 1122.636719 423.5 1142.269531 474.964844 1142.566406 L 475.558594 1142.566406 C 527.617188 1142.566406 576.109375 1122.636719 612.699219 1086.046875 L 796.835938 901.90625 C 774.824219 909.640625 751.621094 913.507812 727.523438 913.507812 C 717.707031 913.210938 707.890625 912.617188 698.074219 911.425781 Z M 698.074219 911.425781 " fill-opacity="1" fill-rule="nonzero"/><path fill="#000000" d="M 1087.175781 342.351562 C 1049.992188 305.164062 1001.203125 286.722656 952.714844 286.722656 C 903.929688 286.722656 855.140625 305.164062 818.253906 342.351562 L 593.363281 567.242188 C 589.496094 571.109375 585.628906 575.277344 582.058594 579.441406 L 581.761719 579.738281 C 581.460938 580.035156 581.164062 580.628906 580.570312 580.925781 C 580.570312 580.925781 580.570312 580.925781 580.273438 581.226562 C 552.308594 615.136719 537.136719 657.378906 537.136719 702 C 537.136719 712.414062 538.03125 722.527344 539.519531 732.640625 C 539.816406 733.238281 539.816406 733.832031 539.816406 734.128906 C 546.359375 772.800781 564.507812 808.5 592.765625 836.460938 C 621.027344 864.722656 656.722656 883.164062 695.097656 889.414062 C 695.695312 889.414062 696.289062 889.710938 696.585938 889.710938 C 706.699219 891.195312 716.816406 892.089844 727.226562 892.089844 C 771.847656 892.089844 814.089844 876.917969 848.003906 848.957031 C 848.003906 848.957031 848.003906 848.957031 848.300781 848.65625 C 848.597656 848.359375 849.191406 848.0625 849.488281 847.46875 L 849.789062 847.171875 C 853.953125 843.601562 858.117188 839.734375 861.984375 835.867188 L 1086.878906 610.972656 C 1161.246094 537.199219 1161.246094 416.71875 1087.175781 342.351562 Z M 1042.554688 566.945312 L 817.660156 791.839844 C 805.761719 803.738281 791.480469 813.257812 776.3125 819.503906 C 761.140625 825.75 744.480469 829.023438 727.523438 829.023438 L 726.632812 829.023438 C 692.125 828.726562 659.996094 815.042969 636.199219 790.351562 C 593.660156 746.621094 589.496094 678.796875 623.109375 629.417969 C 623.703125 628.226562 624.300781 627.035156 625.488281 626.144531 C 625.785156 625.847656 625.785156 625.847656 626.085938 625.847656 C 629.953125 620.789062 634.414062 615.433594 638.875 610.972656 L 861.09375 388.160156 C 910.769531 338.484375 991.683594 337.292969 1041.066406 385.484375 C 1065.757812 409.28125 1079.441406 441.410156 1079.738281 475.917969 C 1080.035156 510.425781 1066.648438 542.851562 1042.554688 566.945312 Z M 1042.554688 566.945312 " fill-opacity="1" fill-rule="nonzero"/><path fill="#000000" d="M 737.9375 541.066406 L 675.761719 603.238281 C 687.066406 600.859375 699.265625 599.964844 710.867188 600.859375 C 741.207031 603.238281 769.765625 616.328125 791.480469 637.746094 C 813.199219 659.164062 825.988281 688.019531 828.371094 718.363281 C 829.261719 730.261719 828.667969 742.160156 825.988281 753.464844 L 888.164062 691.292969 C 881.023438 654.105469 862.875 620.195312 835.804688 593.421875 C 809.03125 566.351562 775.121094 548.203125 737.9375 541.066406 Z M 737.9375 541.066406 " fill-opacity="1" fill-rule="nonzero"/><path fill="#000000" d="M 387.210938 565.757812 L 482.402344 591.339844 C 483.292969 591.636719 484.1875 591.636719 485.078125 591.636719 C 489.839844 591.636719 494.003906 588.660156 495.195312 583.902344 C 496.679688 578.25 493.410156 572.597656 487.757812 571.109375 L 392.5625 545.527344 C 386.910156 544.039062 381.261719 547.3125 379.773438 552.964844 C 378.285156 558.320312 381.855469 563.972656 387.210938 565.757812 Z M 387.210938 565.757812 " fill-opacity="1" fill-rule="nonzero"/><path fill="#000000" d="M 525.535156 540.769531 C 527.617188 542.851562 530.296875 543.742188 532.972656 543.742188 C 535.652344 543.742188 538.328125 542.554688 540.410156 540.769531 C 544.574219 536.601562 544.574219 530.058594 540.410156 525.894531 L 434.507812 419.992188 C 430.34375 415.828125 423.800781 415.828125 419.632812 419.992188 C 415.46875 424.15625 415.46875 430.703125 419.632812 434.867188 Z M 525.535156 540.769531 " fill-opacity="1" fill-rule="nonzero"/><path fill="#000000" d="M 570.160156 488.410156 C 571.347656 493.171875 575.808594 496.144531 580.273438 496.144531 C 581.164062 496.144531 582.058594 495.847656 582.949219 495.847656 C 588.601562 494.363281 591.875 488.410156 590.386719 483.058594 L 564.804688 387.863281 C 563.316406 382.210938 557.367188 378.941406 552.011719 380.425781 C 546.359375 381.914062 543.085938 387.863281 544.574219 393.21875 Z M 570.160156 488.410156 " fill-opacity="1" fill-rule="nonzero"/><path fill="#000000" d="M 858.710938 941.472656 C 857.226562 935.820312 851.273438 932.546875 845.921875 934.035156 C 840.269531 935.519531 836.996094 941.472656 838.484375 946.824219 L 864.066406 1042.019531 C 865.257812 1046.777344 869.71875 1049.753906 874.179688 1049.753906 C 875.074219 1049.753906 875.964844 1049.457031 876.859375 1049.457031 C 882.511719 1047.96875 885.78125 1042.019531 884.296875 1036.664062 Z M 858.710938 941.472656 " fill-opacity="1" fill-rule="nonzero"/><path fill="#000000" d="M 903.632812 889.113281 C 899.464844 884.949219 892.921875 884.949219 888.757812 889.113281 C 884.59375 893.28125 884.59375 899.824219 888.757812 903.988281 L 994.660156 1009.890625 C 996.742188 1011.972656 999.417969 1012.867188 1002.097656 1012.867188 C 1004.773438 1012.867188 1007.449219 1011.675781 1009.535156 1009.890625 C 1013.699219 1005.726562 1013.699219 999.183594 1009.535156 995.015625 Z M 903.632812 889.113281 " fill-opacity="1" fill-rule="nonzero"/><path fill="#000000" d="M 1041.660156 864.125 L 946.46875 838.839844 C 940.816406 837.355469 935.164062 840.625 933.675781 846.277344 C 932.1875 851.929688 935.460938 857.582031 941.113281 859.070312 L 1036.304688 884.652344 C 1037.199219 884.949219 1038.089844 884.949219 1038.984375 884.949219 C 1043.742188 884.949219 1047.90625 881.976562 1049.097656 877.214844 C 1050.585938 871.5625 1047.3125 865.910156 1041.660156 864.125 Z M 1041.660156 864.125 " fill-opacity="1" fill-rule="nonzero"/></g></g></svg>