<svg version="1.0" preserveAspectRatio="xMidYMid meet" viewBox="11.228465625 0 107.10374999999999 29.11392502109705" zoomAndPan="magnify" xmlns:xlink="http://www.w3.org/1999/xlink" xmlns="http://www.w3.org/2000/svg" style="max-height: 500px" width="107.10374999999999" height="29.11392502109705"><defs><g/><clipPath id="504e2e3d9e"><path clip-rule="nonzero" d="M 12.808594 2.902344 L 36.035156 2.902344 L 36.035156 26.128906 L 12.808594 26.128906 Z M 12.808594 2.902344"/></clipPath></defs><g clip-path="url(#504e2e3d9e)"><path fill-rule="nonzero" fill-opacity="1" d="M 36.035156 14.515625 C 36.035156 15.277344 35.960938 16.035156 35.8125 16.78125 C 35.664062 17.53125 35.445312 18.253906 35.152344 18.960938 C 34.859375 19.664062 34.503906 20.332031 34.078125 20.96875 C 33.65625 21.601562 33.175781 22.1875 32.636719 22.726562 C 32.097656 23.265625 31.507812 23.75 30.875 24.171875 C 30.242188 24.59375 29.570312 24.953125 28.867188 25.246094 C 28.164062 25.535156 27.4375 25.757812 26.6875 25.90625 C 25.941406 26.054688 25.1875 26.128906 24.421875 26.128906 C 23.660156 26.128906 22.90625 26.054688 22.15625 25.90625 C 21.410156 25.757812 20.683594 25.535156 19.980469 25.246094 C 19.273438 24.953125 18.605469 24.59375 17.972656 24.171875 C 17.335938 23.75 16.75 23.265625 16.210938 22.726562 C 15.671875 22.1875 15.191406 21.601562 14.769531 20.96875 C 14.34375 20.332031 13.984375 19.664062 13.695312 18.960938 C 13.402344 18.253906 13.183594 17.53125 13.035156 16.78125 C 12.886719 16.035156 12.808594 15.277344 12.808594 14.515625 C 12.808594 13.753906 12.886719 13 13.035156 12.25 C 13.183594 11.503906 13.402344 10.777344 13.695312 10.070312 C 13.984375 9.367188 14.34375 8.699219 14.769531 8.0625 C 15.191406 7.429688 15.671875 6.84375 16.210938 6.304688 C 16.75 5.765625 17.335938 5.285156 17.972656 4.859375 C 18.605469 4.4375 19.273438 4.078125 19.980469 3.789062 C 20.683594 3.496094 21.410156 3.273438 22.15625 3.125 C 22.90625 2.976562 23.660156 2.902344 24.421875 2.902344 C 25.1875 2.902344 25.941406 2.976562 26.6875 3.125 C 27.4375 3.273438 28.164062 3.496094 28.867188 3.789062 C 29.570312 4.078125 30.242188 4.4375 30.875 4.859375 C 31.507812 5.285156 32.097656 5.765625 32.636719 6.304688 C 33.175781 6.84375 33.65625 7.429688 34.078125 8.0625 C 34.503906 8.699219 34.859375 9.367188 35.152344 10.070312 C 35.445312 10.777344 35.664062 11.503906 35.8125 12.25 C 35.960938 13 36.035156 13.753906 36.035156 14.515625 Z M 36.035156 14.515625" fill="#ffffff"/></g><path fill-rule="nonzero" fill-opacity="1" d="M 24.15625 17.71875 L 22.039062 19.839844 C 21.625 20.25 21.085938 20.457031 20.542969 20.457031 C 20.023438 20.457031 19.507812 20.265625 19.109375 19.882812 C 18.707031 19.496094 18.484375 18.972656 18.480469 18.410156 C 18.476562 17.851562 18.695312 17.328125 19.085938 16.929688 L 21.230469 14.785156 C 21.210938 14.632812 21.195312 14.472656 21.195312 14.3125 C 21.195312 13.925781 21.257812 13.539062 21.382812 13.183594 L 18.359375 16.210938 C 17.78125 16.789062 17.457031 17.570312 17.457031 18.398438 C 17.457031 19.214844 17.769531 19.988281 18.347656 20.570312 C 18.921875 21.15625 19.691406 21.472656 20.527344 21.480469 L 20.539062 21.480469 C 21.382812 21.480469 22.171875 21.15625 22.769531 20.558594 L 25.765625 17.566406 C 25.40625 17.691406 25.027344 17.753906 24.636719 17.753906 C 24.476562 17.75 24.316406 17.738281 24.15625 17.71875 Z M 24.15625 17.71875" fill="#000000"/><path fill-rule="nonzero" fill-opacity="1" d="M 30.484375 8.464844 C 29.882812 7.859375 29.089844 7.558594 28.300781 7.558594 C 27.503906 7.558594 26.710938 7.859375 26.113281 8.464844 L 22.453125 12.121094 C 22.390625 12.183594 22.328125 12.25 22.269531 12.320312 L 22.265625 12.324219 C 22.261719 12.328125 22.253906 12.339844 22.246094 12.34375 C 22.246094 12.34375 22.246094 12.34375 22.242188 12.347656 C 21.785156 12.898438 21.539062 13.585938 21.539062 14.3125 C 21.539062 14.480469 21.554688 14.648438 21.578125 14.8125 C 21.582031 14.820312 21.582031 14.832031 21.582031 14.835938 C 21.691406 15.464844 21.984375 16.046875 22.445312 16.5 C 22.902344 16.960938 23.484375 17.257812 24.109375 17.359375 C 24.117188 17.359375 24.128906 17.367188 24.132812 17.367188 C 24.296875 17.390625 24.460938 17.40625 24.632812 17.40625 C 25.355469 17.40625 26.042969 17.15625 26.597656 16.703125 C 26.597656 16.703125 26.597656 16.703125 26.601562 16.699219 C 26.605469 16.695312 26.617188 16.6875 26.621094 16.679688 L 26.625 16.675781 C 26.691406 16.617188 26.761719 16.554688 26.824219 16.492188 L 30.480469 12.832031 C 31.691406 11.632812 31.691406 9.671875 30.484375 8.464844 Z M 29.761719 12.117188 L 26.101562 15.773438 C 25.910156 15.96875 25.675781 16.121094 25.429688 16.222656 C 25.183594 16.324219 24.910156 16.378906 24.636719 16.378906 L 24.621094 16.378906 C 24.058594 16.375 23.539062 16.152344 23.152344 15.75 C 22.457031 15.039062 22.390625 13.933594 22.9375 13.132812 C 22.949219 13.113281 22.957031 13.09375 22.976562 13.078125 C 22.980469 13.074219 22.980469 13.074219 22.984375 13.074219 C 23.050781 12.992188 23.121094 12.90625 23.195312 12.832031 L 26.808594 9.207031 C 27.617188 8.398438 28.933594 8.378906 29.734375 9.164062 C 30.136719 9.550781 30.359375 10.074219 30.367188 10.636719 C 30.371094 11.195312 30.152344 11.722656 29.761719 12.117188 Z M 29.761719 12.117188" fill="#000000"/><path fill-rule="nonzero" fill-opacity="1" d="M 24.804688 11.695312 L 23.792969 12.707031 C 23.976562 12.667969 24.175781 12.652344 24.367188 12.667969 C 24.859375 12.707031 25.324219 12.917969 25.675781 13.269531 C 26.03125 13.617188 26.238281 14.085938 26.277344 14.578125 C 26.292969 14.773438 26.28125 14.964844 26.238281 15.148438 L 27.25 14.140625 C 27.132812 13.535156 26.839844 12.980469 26.398438 12.546875 C 25.960938 12.105469 25.410156 11.8125 24.804688 11.695312 Z M 24.804688 11.695312" fill="#000000"/><path fill-rule="nonzero" fill-opacity="1" d="M 19.101562 12.097656 L 20.648438 12.511719 C 20.664062 12.519531 20.679688 12.519531 20.691406 12.519531 C 20.769531 12.519531 20.839844 12.46875 20.855469 12.390625 C 20.882812 12.300781 20.828125 12.207031 20.734375 12.183594 L 19.1875 11.769531 C 19.097656 11.742188 19.003906 11.796875 18.980469 11.890625 C 18.957031 11.976562 19.015625 12.066406 19.101562 12.097656 Z M 19.101562 12.097656" fill="#000000"/><path fill-rule="nonzero" fill-opacity="1" d="M 21.351562 11.691406 C 21.382812 11.722656 21.429688 11.738281 21.472656 11.738281 C 21.515625 11.738281 21.558594 11.71875 21.59375 11.691406 C 21.660156 11.621094 21.660156 11.515625 21.59375 11.449219 L 19.871094 9.726562 C 19.800781 9.65625 19.695312 9.65625 19.628906 9.726562 C 19.558594 9.792969 19.558594 9.898438 19.628906 9.96875 Z M 21.351562 11.691406" fill="#000000"/><path fill-rule="nonzero" fill-opacity="1" d="M 22.078125 10.839844 C 22.097656 10.917969 22.167969 10.964844 22.242188 10.964844 C 22.253906 10.964844 22.269531 10.960938 22.285156 10.960938 C 22.375 10.933594 22.429688 10.839844 22.40625 10.75 L 21.988281 9.203125 C 21.964844 9.109375 21.867188 9.058594 21.78125 9.082031 C 21.691406 9.105469 21.636719 9.203125 21.660156 9.289062 Z M 22.078125 10.839844" fill="#000000"/><path fill-rule="nonzero" fill-opacity="1" d="M 26.769531 18.207031 C 26.746094 18.117188 26.648438 18.0625 26.5625 18.085938 C 26.46875 18.109375 26.417969 18.207031 26.441406 18.296875 L 26.855469 19.84375 C 26.875 19.921875 26.949219 19.96875 27.023438 19.96875 C 27.035156 19.96875 27.050781 19.964844 27.066406 19.964844 C 27.15625 19.941406 27.210938 19.84375 27.1875 19.757812 Z M 26.769531 18.207031" fill="#000000"/><path fill-rule="nonzero" fill-opacity="1" d="M 27.5 17.355469 C 27.433594 17.289062 27.328125 17.289062 27.257812 17.355469 C 27.191406 17.425781 27.191406 17.53125 27.257812 17.597656 L 28.980469 19.320312 C 29.015625 19.355469 29.058594 19.371094 29.101562 19.371094 C 29.144531 19.371094 29.191406 19.351562 29.222656 19.320312 C 29.292969 19.253906 29.292969 19.148438 29.222656 19.078125 Z M 27.5 17.355469" fill="#000000"/><path fill-rule="nonzero" fill-opacity="1" d="M 29.746094 16.949219 L 28.199219 16.539062 C 28.105469 16.515625 28.015625 16.566406 27.988281 16.660156 C 27.964844 16.75 28.019531 16.84375 28.109375 16.867188 L 29.660156 17.285156 C 29.671875 17.289062 29.6875 17.289062 29.703125 17.289062 C 29.78125 17.289062 29.847656 17.242188 29.867188 17.164062 C 29.890625 17.070312 29.839844 16.980469 29.746094 16.949219 Z M 29.746094 16.949219" fill="#000000"/><g fill-opacity="1" fill="#ffffff"><g transform="translate(37.565018, 21.048389)"><g><path d="M 1.25 0 L 1.25 -14.421875 L 4.21875 -14.421875 L 4.21875 -2.484375 L 10.515625 -2.484375 L 10.515625 0 Z M 1.25 0"/></g></g></g><g fill-opacity="1" fill="#ffffff"><g transform="translate(48.735145, 21.048389)"><g><path d="M 1.1875 0 L 1.1875 -10.6875 L 4.078125 -10.6875 L 4.078125 0 Z M 2.625 -12.078125 C 2.175781 -12.078125 1.796875 -12.21875 1.484375 -12.5 C 1.171875 -12.789062 1.015625 -13.148438 1.015625 -13.578125 C 1.015625 -13.992188 1.171875 -14.347656 1.484375 -14.640625 C 1.796875 -14.929688 2.175781 -15.078125 2.625 -15.078125 C 3.070312 -15.078125 3.445312 -14.929688 3.75 -14.640625 C 4.0625 -14.347656 4.21875 -13.992188 4.21875 -13.578125 C 4.21875 -13.148438 4.0625 -12.789062 3.75 -12.5 C 3.445312 -12.21875 3.070312 -12.078125 2.625 -12.078125 Z M 2.625 -12.078125"/></g></g></g><g fill-opacity="1" fill="#ffffff"><g transform="translate(54.000786, 21.048389)"><g><path d="M 4.078125 -6.140625 L 4.078125 0 L 1.1875 0 L 1.1875 -10.6875 L 3.9375 -10.6875 L 3.984375 -8 L 3.734375 -8 C 4.023438 -8.90625 4.460938 -9.601562 5.046875 -10.09375 C 5.628906 -10.59375 6.378906 -10.84375 7.296875 -10.84375 C 8.035156 -10.84375 8.679688 -10.679688 9.234375 -10.359375 C 9.796875 -10.035156 10.226562 -9.570312 10.53125 -8.96875 C 10.832031 -8.363281 10.984375 -7.632812 10.984375 -6.78125 L 10.984375 0 L 8.109375 0 L 8.109375 -6.265625 C 8.109375 -6.941406 7.9375 -7.46875 7.59375 -7.84375 C 7.25 -8.21875 6.769531 -8.40625 6.15625 -8.40625 C 5.75 -8.40625 5.390625 -8.316406 5.078125 -8.140625 C 4.765625 -7.960938 4.519531 -7.707031 4.34375 -7.375 C 4.164062 -7.039062 4.078125 -6.628906 4.078125 -6.140625 Z M 4.078125 -6.140625"/></g></g></g><g fill-opacity="1" fill="#ffffff"><g transform="translate(66.17758, 21.048389)"><g><path d="M 3.8125 -3.125 L 3.8125 -6.578125 L 4.21875 -6.578125 L 7.765625 -10.6875 L 11.125 -10.6875 L 6.453125 -5.328125 L 5.78125 -5.328125 Z M 1.1875 0 L 1.1875 -14.421875 L 4.078125 -14.421875 L 4.078125 0 Z M 7.921875 0 L 4.6875 -4.671875 L 6.609375 -6.734375 L 11.328125 0 Z M 7.921875 0"/></g></g></g><g fill-opacity="1" fill="#ffffff"><g transform="translate(77.541297, 21.048389)"><g><path d="M 6.328125 0 L 2.59375 0 L 2.59375 -2.53125 L 6.1875 -2.53125 C 7.125 -2.53125 7.90625 -2.695312 8.53125 -3.03125 C 9.164062 -3.375 9.640625 -3.890625 9.953125 -4.578125 C 10.265625 -5.273438 10.421875 -6.15625 10.421875 -7.21875 C 10.421875 -8.28125 10.265625 -9.15625 9.953125 -9.84375 C 9.640625 -10.53125 9.164062 -11.039062 8.53125 -11.375 C 7.90625 -11.71875 7.128906 -11.890625 6.203125 -11.890625 L 2.53125 -11.890625 L 2.53125 -14.421875 L 6.375 -14.421875 C 7.832031 -14.421875 9.082031 -14.128906 10.125 -13.546875 C 11.164062 -12.972656 11.96875 -12.144531 12.53125 -11.0625 C 13.09375 -9.988281 13.375 -8.707031 13.375 -7.21875 C 13.375 -5.71875 13.09375 -4.429688 12.53125 -3.359375 C 11.976562 -2.285156 11.171875 -1.457031 10.109375 -0.875 C 9.054688 -0.289062 7.796875 0 6.328125 0 Z M 4.21875 -14.421875 L 4.21875 0 L 1.25 0 L 1.25 -14.421875 Z M 4.21875 -14.421875"/></g></g></g><g fill-opacity="1" fill="#ffffff"><g transform="translate(91.760463, 21.048389)"><g><path d="M 6.015625 0.21875 C 4.929688 0.21875 3.992188 -0.0078125 3.203125 -0.46875 C 2.421875 -0.9375 1.8125 -1.582031 1.375 -2.40625 C 0.945312 -3.238281 0.734375 -4.207031 0.734375 -5.3125 C 0.734375 -6.414062 0.945312 -7.378906 1.375 -8.203125 C 1.8125 -9.035156 2.421875 -9.679688 3.203125 -10.140625 C 3.992188 -10.609375 4.929688 -10.84375 6.015625 -10.84375 C 7.085938 -10.84375 8.015625 -10.609375 8.796875 -10.140625 C 9.585938 -9.679688 10.195312 -9.035156 10.625 -8.203125 C 11.0625 -7.378906 11.28125 -6.414062 11.28125 -5.3125 C 11.28125 -4.207031 11.0625 -3.238281 10.625 -2.40625 C 10.195312 -1.582031 9.585938 -0.9375 8.796875 -0.46875 C 8.015625 -0.0078125 7.085938 0.21875 6.015625 0.21875 Z M 6.015625 -2.078125 C 6.515625 -2.078125 6.9375 -2.210938 7.28125 -2.484375 C 7.625 -2.765625 7.882812 -3.144531 8.0625 -3.625 C 8.25 -4.113281 8.34375 -4.675781 8.34375 -5.3125 C 8.34375 -5.957031 8.25 -6.519531 8.0625 -7 C 7.882812 -7.476562 7.625 -7.859375 7.28125 -8.140625 C 6.9375 -8.421875 6.515625 -8.5625 6.015625 -8.5625 C 5.503906 -8.5625 5.078125 -8.421875 4.734375 -8.140625 C 4.390625 -7.859375 4.125 -7.476562 3.9375 -7 C 3.757812 -6.519531 3.671875 -5.957031 3.671875 -5.3125 C 3.671875 -4.675781 3.757812 -4.113281 3.9375 -3.625 C 4.125 -3.144531 4.390625 -2.765625 4.734375 -2.484375 C 5.078125 -2.210938 5.503906 -2.078125 6.015625 -2.078125 Z M 6.015625 -2.078125"/></g></g></g><g fill-opacity="1" fill="#ffffff"><g transform="translate(103.772706, 21.048389)"><g><path d="M 3.8125 -3.125 L 3.8125 -6.578125 L 4.21875 -6.578125 L 7.765625 -10.6875 L 11.125 -10.6875 L 6.453125 -5.328125 L 5.78125 -5.328125 Z M 1.1875 0 L 1.1875 -14.421875 L 4.078125 -14.421875 L 4.078125 0 Z M 7.921875 0 L 4.6875 -4.671875 L 6.609375 -6.734375 L 11.328125 0 Z M 7.921875 0"/></g></g></g></svg>